<svg width="58" height="57" viewBox="0 0 58 57" fill="none" xmlns="http://www.w3.org/2000/svg">
<rect width="58" height="57" rx="9" fill="#EBBFAE"/>
<path d="M41.7815 41.5799L40.2918 39.918C40.3925 37.7081 40.5588 26.8778 34.6657 20.3031C29.5663 14.6142 21.4815 14 18.2422 14C17.3149 14 16.7577 14.0491 16.7346 14.0512C16.3698 14.0841 16.08 14.4069 16.0509 14.8139C16.0136 15.3336 15.208 27.626 21.655 34.8178C26.7544 40.5067 34.8399 41.1205 38.0793 41.1205C38.5858 41.1205 38.9766 41.1059 39.2359 41.0926L40.7271 42.7562C40.8725 42.9189 41.0635 43 41.2545 43C41.4454 43 41.6364 42.9189 41.7819 42.7562C42.0728 42.4312 42.0728 41.9048 41.7815 41.5799ZM22.7094 33.6411C17.6085 27.9505 17.4455 18.3782 17.5089 15.676C17.7125 15.6694 17.9591 15.6648 18.2422 15.6648C21.2958 15.6648 28.9057 16.2315 33.6109 21.4802C38.133 26.525 38.7737 34.6181 38.817 38.2723L33.3129 32.1323L34.0059 25.506C34.0537 25.0495 33.7605 24.6363 33.3517 24.5831C32.9392 24.5306 32.5722 24.8568 32.5244 25.3129L31.9683 30.6319L28.2001 26.4285L27.6175 21.5093C27.5634 21.0537 27.1867 20.7316 26.7801 20.7932C26.3717 20.8536 26.0841 21.2717 26.1382 21.7274L26.4657 24.494L22.0962 19.619C21.8053 19.294 21.3323 19.294 21.0414 19.619C20.7501 19.944 20.7501 20.4708 21.0414 20.7957L25.4105 25.6699L22.9313 25.3046C22.5229 25.2447 22.1477 25.565 22.094 26.0207C22.0399 26.4763 22.3275 26.8945 22.7359 26.9548L27.1445 27.6048L30.9128 31.8082L26.1453 32.4286C25.7361 32.4819 25.4433 32.895 25.4911 33.3515C25.5355 33.7755 25.8577 34.0876 26.2311 34.0876C26.2598 34.0876 26.2889 34.0859 26.3184 34.0818L32.2577 33.3091L37.7667 39.4548C34.5337 39.4145 27.2616 38.7196 22.7094 33.6411Z" fill="#2A2A2A"/>
</svg>
