<svg width="27" height="27" viewBox="0 0 27 27" fill="none" xmlns="http://www.w3.org/2000/svg">
<path d="M6.38636 4C5.75485 4.0045 5.15048 4.25736 4.70392 4.70392C4.25736 5.15048 4.0045 5.75485 4 6.38636V22.6136C4 23.9185 5.0815 25 6.38636 25H22.6136C23.9185 25 25 23.9185 25 22.6136V6.38636C25 5.0815 23.9185 4 22.6136 4H6.38636ZM6.38636 5.90909H22.6136C22.8857 5.90909 23.0909 6.11432 23.0909 6.38636V22.6136C23.0922 22.6767 23.0808 22.7393 23.0572 22.7978C23.0337 22.8563 22.9986 22.9094 22.954 22.954C22.9094 22.9986 22.8563 23.0337 22.7978 23.0572C22.7393 23.0808 22.6767 23.0922 22.6136 23.0909H6.38636C6.32329 23.0923 6.26059 23.081 6.20203 23.0575C6.14348 23.034 6.09029 22.9989 6.04568 22.9543C6.00108 22.9097 5.96597 22.8565 5.9425 22.798C5.91902 22.7394 5.90766 22.6767 5.90909 22.6136V6.38636C5.90909 6.11432 6.11432 5.90909 6.38636 5.90909ZM9.19082 7.54995C8.97207 7.54468 8.75448 7.5832 8.55084 7.66327C8.3472 7.74334 8.16163 7.86332 8.00505 8.01617C7.84848 8.16901 7.72405 8.35163 7.6391 8.55328C7.55414 8.75493 7.51038 8.97153 7.51038 9.19034C7.51038 9.40915 7.55414 9.62575 7.6391 9.8274C7.72405 10.029 7.84848 10.2117 8.00505 10.3645C8.16163 10.5174 8.3472 10.6373 8.55084 10.7174C8.75448 10.7975 8.97207 10.836 9.19082 10.8307C9.61902 10.8204 10.0262 10.643 10.3254 10.3365C10.6246 10.03 10.7921 9.61867 10.7921 9.19034C10.7921 8.76201 10.6246 8.35066 10.3254 8.04415C10.0262 7.73765 9.61902 7.56028 9.19082 7.54995ZM17.8104 11.9046C16.4425 11.9046 15.5328 12.6539 15.1567 13.366H15.0966V12.1136H12.4115V21.1818H15.2159V16.7069C15.2159 15.5252 15.4507 14.3807 16.916 14.3807C18.3592 14.3807 18.3783 15.7151 18.3783 16.767V21.1818H21.1818V16.2C21.1818 13.7621 20.6625 11.9046 17.8104 11.9046ZM7.81818 12.1136V21.1818H10.6522V12.1136H7.81818Z" fill="white"/>
</svg>
