<svg width="24" height="25" viewBox="0 0 24 25" fill="none" xmlns="http://www.w3.org/2000/svg">
<g clip-path="url(#clip0_1_55)">
<path d="M8.38 0.5H17.62C21.14 0.5 24 3.36 24 6.88V16.12C24 17.8121 23.3278 19.4349 22.1313 20.6313C20.9349 21.8278 19.3121 22.5 17.62 22.5H8.38C4.86 22.5 2 19.64 2 16.12V6.88C2 5.18792 2.67218 3.56514 3.86866 2.36866C5.06514 1.17218 6.68792 0.5 8.38 0.5ZM8.16 2.7C7.10974 2.7 6.1025 3.11721 5.35986 3.85986C4.61721 4.6025 4.2 5.60974 4.2 6.66V16.34C4.2 18.529 5.971 20.3 8.16 20.3H17.84C18.8903 20.3 19.8975 19.8828 20.6401 19.1401C21.3828 18.3975 21.8 17.3903 21.8 16.34V6.66C21.8 4.471 20.029 2.7 17.84 2.7H8.16ZM18.775 4.35C19.1397 4.35 19.4894 4.49487 19.7473 4.75273C20.0051 5.01059 20.15 5.36033 20.15 5.725C20.15 6.08967 20.0051 6.43941 19.7473 6.69727C19.4894 6.95513 19.1397 7.1 18.775 7.1C18.4103 7.1 18.0606 6.95513 17.8027 6.69727C17.5449 6.43941 17.4 6.08967 17.4 5.725C17.4 5.36033 17.5449 5.01059 17.8027 4.75273C18.0606 4.49487 18.4103 4.35 18.775 4.35ZM13 6C14.4587 6 15.8576 6.57946 16.8891 7.61091C17.9205 8.64236 18.5 10.0413 18.5 11.5C18.5 12.9587 17.9205 14.3576 16.8891 15.3891C15.8576 16.4205 14.4587 17 13 17C11.5413 17 10.1424 16.4205 9.11091 15.3891C8.07946 14.3576 7.5 12.9587 7.5 11.5C7.5 10.0413 8.07946 8.64236 9.11091 7.61091C10.1424 6.57946 11.5413 6 13 6ZM13 8.2C12.1248 8.2 11.2854 8.54768 10.6665 9.16655C10.0477 9.78542 9.7 10.6248 9.7 11.5C9.7 12.3752 10.0477 13.2146 10.6665 13.8335C11.2854 14.4523 12.1248 14.8 13 14.8C13.8752 14.8 14.7146 14.4523 15.3335 13.8335C15.9523 13.2146 16.3 12.3752 16.3 11.5C16.3 10.6248 15.9523 9.78542 15.3335 9.16655C14.7146 8.54768 13.8752 8.2 13 8.2Z" fill="white"/>
</g>
<defs>
<clipPath id="clip0_1_55">
<rect width="24" height="24" fill="white" transform="translate(0 0.5)"/>
</clipPath>
</defs>
</svg>
