<svg width="22" height="23" viewBox="0 0 22 23" fill="none" xmlns="http://www.w3.org/2000/svg">
<g clip-path="url(#clip0_1_53)">
<path d="M21.2344 2.69995L21.9678 2.65155C21.9583 2.50758 21.9065 2.36962 21.8189 2.25494C21.7314 2.14025 21.6119 2.05395 21.4756 2.00682C21.3392 1.95969 21.192 1.95384 21.0523 1.99C20.9126 2.02615 20.7867 2.10271 20.6903 2.21008L21.2344 2.69995ZM20.504 7.03981C20.504 6.84532 20.4268 6.6588 20.2893 6.52127C20.1517 6.38374 19.9652 6.30648 19.7707 6.30648C19.5762 6.30648 19.3897 6.38374 19.2522 6.52127C19.1146 6.6588 19.0374 6.84532 19.0374 7.03981H20.504ZM0.733378 18.8333V18.0999C0.575915 18.0998 0.422572 18.1502 0.296033 18.244C0.169494 18.3377 0.0764805 18.4696 0.0307512 18.6203C-0.014978 18.771 -0.0109936 18.9324 0.0421149 19.0806C0.0952234 19.2289 0.194635 19.3561 0.325644 19.4434L0.733378 18.8333ZM2.19711 2.69995L2.88498 2.44328C2.83499 2.30939 2.74697 2.19301 2.63173 2.10848C2.51649 2.02394 2.37906 1.97491 2.23633 1.96744C2.09361 1.95996 1.95181 1.99435 1.82837 2.06638C1.70492 2.13841 1.60522 2.24494 1.54151 2.37288L2.19711 2.69995ZM8.05498 15.8999L8.57418 16.4177C8.66227 16.3293 8.72635 16.2199 8.76037 16.0999C8.79438 15.9798 8.79721 15.8531 8.76857 15.7317C8.73994 15.6102 8.68079 15.4981 8.59673 15.4059C8.51266 15.3137 8.40646 15.2445 8.28818 15.2047L8.05498 15.8999ZM18.6502 4.12701L18.1075 4.61981L18.3715 4.91168L18.7602 4.85301L18.6502 4.12701ZM20.504 2.74835C20.5788 3.88941 20.5084 4.58168 20.3236 5.10381C20.1447 5.60981 19.8308 6.02635 19.2632 6.57048L20.2782 7.62941C20.9206 7.01341 21.4163 6.40915 21.7067 5.59368C21.9898 4.79288 22.0484 3.86595 21.9678 2.65155L20.504 2.74835ZM20.504 8.10755V7.03981H19.0374V8.10901H20.504V8.10755ZM10.252 7.16008V8.56661H11.7187V7.16008H10.252ZM10.252 8.56661V9.29995H11.7187V8.56661H10.252ZM15.4367 1.96661C14.7551 1.967 14.0802 2.10164 13.4506 2.36284C12.821 2.62405 12.249 3.0067 11.7673 3.48896C11.2856 3.97122 10.9036 4.54363 10.6431 5.17353C10.3826 5.80342 10.2487 6.47845 10.2491 7.16008H11.7158C11.7154 6.67093 11.8114 6.1865 11.9983 5.73446C12.1851 5.28241 12.4592 4.87162 12.8049 4.52553C13.1506 4.17945 13.5611 3.90486 14.0129 3.71744C14.4647 3.53003 14.949 3.43347 15.4382 3.43328V1.96661H15.4367ZM19.0359 8.10755C19.0374 14.4377 13.9143 19.5666 7.59738 19.5666V21.0333C14.7254 21.0333 20.504 15.2458 20.504 8.10755H19.0359ZM1.51071 2.95661C2.30858 5.08621 5.30058 9.29995 10.9854 9.29995V7.83328C6.12191 7.83328 3.55084 4.22528 2.88351 2.44328L1.51071 2.95661ZM1.54151 2.37288C0.00591078 5.44701 -0.230222 8.43021 0.885911 10.9705C1.99911 13.5034 4.39418 15.4511 7.82324 16.5951L8.28818 15.2047C5.12751 14.1487 3.12844 12.4298 2.22791 10.3794C1.33031 8.33635 1.46084 5.81808 2.85418 3.02701L1.54151 2.37288ZM7.53578 15.3822C6.65284 16.2666 3.99818 18.0999 0.733378 18.0999V19.5666C4.49684 19.5666 7.50498 17.4898 8.57418 16.4177L7.53578 15.3822ZM19.1943 3.63568C18.7201 3.10981 18.1407 2.68948 17.4936 2.40195C16.8466 2.11441 16.1463 1.96609 15.4382 1.96661V3.43328C16.4956 3.43328 17.4475 3.88941 18.1075 4.61981L19.1943 3.63568ZM18.7602 4.85301C19.9284 4.66215 20.9954 4.07483 21.7815 3.18981L20.6903 2.21008C20.1311 2.84183 19.3722 3.26271 18.5402 3.40248L18.7602 4.85301ZM0.325644 19.4434C2.73244 21.0479 5.25511 21.0333 7.59738 21.0333V19.5666C5.20671 19.5666 3.12698 19.5505 1.14111 18.2231L0.325644 19.4434Z" fill="white"/>
</g>
<defs>
<clipPath id="clip0_1_53">
<rect width="22" height="22" fill="white" transform="translate(0 0.5)"/>
</clipPath>
</defs>
</svg>
